<svg width="40" height="24" viewBox="0 0 40 24" fill="none" xmlns="http://www.w3.org/2000/svg">
  <rect width="40" height="24" rx="4" fill="#1A1F71"/>
  <path d="M16.5 7.5L14.5 16.5H12.5L14.5 7.5H16.5Z" fill="white"/>
  <path d="M22.5 7.5C22 7.5 21.3 7.7 20.8 8L20.6 9.2C21.1 8.9 21.7 8.7 22.2 8.7C22.6 8.7 22.9 8.9 22.9 9.3C22.9 9.5 22.8 9.7 22.6 9.8L21.5 10.3C20.9 10.6 20.5 11.1 20.5 11.8C20.5 12.7 21.2 13.2 22.1 13.2C22.7 13.2 23.2 13 23.5 12.7L23.7 11.5C23.3 11.7 22.9 11.9 22.5 11.9C22.2 11.9 22 11.7 22 11.5C22 11.3 22.1 11.2 22.3 11.1L23.4 10.6C24 10.3 24.4 9.8 24.4 9.1C24.4 8.1 23.6 7.5 22.5 7.5Z" fill="white"/>
  <path d="M27.5 7.5C27.1 7.5 26.8 7.7 26.6 8L24.5 16.5H26.5L26.9 15.2H29.1L29.3 16.5H31L29.5 7.5H27.5ZM27.4 13.5L28.2 10.5L28.6 13.5H27.4Z" fill="white"/>
  <path d="M19.5 7.5L17.8 13.8L17.6 12.7L17 9.2C16.9 8.6 16.4 8.1 15.8 8L15.5 7.5H18.5C19 7.5 19.4 7.8 19.5 8.3L20.2 12.5L21.5 7.5H19.5Z" fill="white"/>
</svg>