<svg width="40" height="24" viewBox="0 0 40 24" fill="none" xmlns="http://www.w3.org/2000/svg">
  <rect width="40" height="24" rx="4" fill="#EB001B"/>
  <circle cx="15" cy="12" r="7" fill="#EB001B"/>
  <circle cx="25" cy="12" r="7" fill="#FF5F00"/>
  <circle cx="20" cy="12" r="7" fill="#FF5F00" fill-opacity="0.8"/>
  <path d="M17.5 8C18.9 9.1 19.8 10.5 19.8 12C19.8 13.5 18.9 14.9 17.5 16C18.9 14.9 20.2 13.5 20.2 12C20.2 10.5 18.9 9.1 17.5 8Z" fill="#FF5F00"/>
  <path d="M22.5 8C21.1 9.1 20.2 10.5 20.2 12C20.2 13.5 21.1 14.9 22.5 16C21.1 14.9 19.8 13.5 19.8 12C19.8 10.5 21.1 9.1 22.5 8Z" fill="#EB001B"/>
</svg>